<?xml version="1.0" encoding="utf-8"?>
<!-- Generator: Adobe Illustrator 24.1.2, SVG Export Plug-In . SVG Version: 6.00 Build 0)  -->
<svg version="1.1" id="Capa_1" xmlns="http://www.w3.org/2000/svg" xmlns:xlink="http://www.w3.org/1999/xlink" x="0px" y="0px"
	 viewBox="0 0 100 100" style="enable-background:new 0 0 100 100;" xml:space="preserve">
<style type="text/css">
	.st0{fill:url(#SVGID_1_);}
	.st1{fill-rule:evenodd;clip-rule:evenodd;fill:#FFFFFF;}
</style>
<g>
	<linearGradient id="SVGID_1_" gradientUnits="userSpaceOnUse" x1="48.9492" y1="-37.6793" x2="50.7201" y2="114.6211">
		<stop  offset="0.1322" style="stop-color:#4FAE32"/>
		<stop  offset="0.794" style="stop-color:#0F9939"/>
	</linearGradient>
	<path class="st0" d="M98.71,49.62c0,26.91-21.85,48.67-48.77,48.67c-26.92,0-48.73-21.76-48.73-48.67C1.21,22.76,23.02,1,49.95,1
		C76.87,1,98.71,22.76,98.71,49.62z"/>
	<g>
		<path class="st1" d="M78.86,42.68C75.63,29.2,63.99,20.04,49.95,19.84c-1.85,0.07-3.85,0.23-5.67,0.59
			c-19.69,3.92-29.82,25.61-20.3,43.09c0.34,0.48,0.34,0.93,0.27,1.45c-1.39,4.51-2.66,9.18-3.88,13.74
			c-0.2,0.82-0.2,0.82,0.56,0.59c4.81-1.29,9.56-2.52,14.36-3.69c0.42-0.14,0.72-0.14,1.07,0.07c6.16,3.13,12.65,3.97,19.47,2.72
			C72.08,75.26,82.74,58.73,78.86,42.68z M54.12,73.62c-1.42,0.27-2.75,0.41-3.42,0.29c-5.24,0-9.45-1.13-13.37-3.4
			c-0.56-0.34-0.98-0.45-1.51-0.25c-2.68,0.66-5.29,1.36-7.95,2.04c-0.55,0.18-0.6,0.09-0.48-0.48c0.7-2.45,1.36-4.94,2.14-7.48
			c0.17-0.68,0.12-1.18-0.31-1.75c-5.37-8.7-5.13-19.47,0.87-27.54c6.26-8.34,14.86-11.81,25.07-9.63
			c10.08,2.11,16.53,8.66,18.82,18.65C77.24,57.78,67.97,71.38,54.12,73.62z"/>
		<path class="st1" d="M57.71,63.51c-1.04,0.09-2.08-0.11-3.08-0.43c-6.78-1.97-11.92-6.12-16.04-11.74c-1.53-2.09-3-4.33-3.44-6.96
			c-0.62-3.08,0.34-5.8,2.67-7.91c0.77-0.73,3.03-1.07,3.95-0.61c0.3,0.27,0.47,0.52,0.66,0.82c0.84,2.09,1.74,4.03,2.59,6.05
			c0.12,0.41,0.1,0.82-0.12,1.25c-0.45,0.91-1.15,1.68-1.82,2.43c-0.57,0.5-0.57,1.07-0.18,1.63c2.43,4.06,5.71,6.96,10.12,8.66
			c0.64,0.27,1.13,0.18,1.52-0.34c0.76-0.86,1.51-1.81,2.21-2.74c0.43-0.59,1.01-0.68,1.65-0.43c1.45,0.68,2.88,1.36,4.27,1.99
			c0.39,0.18,0.66,0.34,1,0.45c1.47,0.73,1.47,0.84,1.3,2.4c-0.19,3.08-2.57,4.65-5.28,5.42C58.94,63.61,58.35,63.61,57.71,63.51z"
			/>
	</g>
</g>
</svg>
